<svg width="24" height="24" viewBox="0 0 24 24" fill="none" xmlns="http://www.w3.org/2000/svg">
<ellipse cx="11.7455" cy="11.5699" rx="11.516" ry="11.5018" fill="#FA002C"/>
<g clip-path="url(#clip0_95_41)">
<path d="M11.7455 6.06909C9.54575 6.06909 7.75615 7.85648 7.75615 10.0535C7.75615 12.78 11.3262 16.7827 11.4782 16.9518C11.621 17.1106 11.8702 17.1103 12.0127 16.9518C12.1647 16.7827 15.7348 12.78 15.7348 10.0535C15.7348 7.85648 13.9452 6.06909 11.7455 6.06909ZM11.7455 12.0581C10.6387 12.0581 9.73836 11.1588 9.73836 10.0535C9.73836 8.94809 10.6388 8.04884 11.7455 8.04884C12.8522 8.04884 13.7526 8.94812 13.7526 10.0535C13.7526 11.1589 12.8522 12.0581 11.7455 12.0581Z" fill="white"/>
</g>
<defs>
<clipPath id="clip0_95_41">
<rect width="11.0153" height="11.0017" fill="white" transform="translate(6.23782 6.06909)"/>
</clipPath>
</defs>
</svg>
