<svg width="26" height="26" viewBox="0 0 26 26" fill="none" xmlns="http://www.w3.org/2000/svg">
<circle cx="13.25" cy="13" r="12.5" fill="#FA002C"/>
<path d="M19.8539 16.4053L18.4235 15.4516L17.1518 14.604C16.9064 14.4407 16.5766 14.4942 16.3954 14.7268L15.6086 15.7383C15.4396 15.9578 15.1355 16.0209 14.8931 15.8867C14.3592 15.5897 13.7278 15.3101 12.3348 13.9152C10.9417 12.5204 10.6602 11.8908 10.3632 11.3569C10.2291 11.1145 10.2921 10.8104 10.5116 10.6414L11.5232 9.85455C11.7557 9.67341 11.8093 9.3436 11.646 9.09816L10.8244 7.86569L9.84468 6.39605C9.67792 6.1459 9.34411 6.0708 9.0863 6.22541L7.95637 6.90327C7.651 7.08319 7.42653 7.37371 7.32946 7.71461C7.02046 8.84118 6.95817 11.3264 10.941 15.3092C14.9238 19.292 17.4088 19.2295 18.5353 18.9205C18.8762 18.8234 19.1668 18.599 19.3467 18.2936L20.0245 17.1637C20.1792 16.9058 20.1041 16.5721 19.8539 16.4053Z" fill="white"/>
</svg>
