<svg width="24" height="24" viewBox="0 0 24 24" fill="none" xmlns="http://www.w3.org/2000/svg">
<ellipse cx="11.7455" cy="11.5699" rx="11.516" ry="11.5018" fill="#FA002C"/>
<path d="M11.7455 6.06885C8.70843 6.06885 6.23782 8.5364 6.23782 11.5697C6.23782 14.603 8.70843 17.0705 11.7455 17.0705C14.7825 17.0705 17.2531 14.603 17.2531 11.5697C17.2531 8.5364 14.7825 6.06885 11.7455 6.06885ZM14.3648 14.415C14.2753 14.5043 14.1578 14.5493 14.0404 14.5493C13.9229 14.5493 13.8053 14.5043 13.7159 14.415L11.421 12.123C11.3347 12.0373 11.2865 11.9208 11.2865 11.7989V8.81927C11.2865 8.56578 11.4921 8.36089 11.7455 8.36089C11.9989 8.36089 12.2044 8.56578 12.2044 8.81927V11.6091L14.3648 13.7668C14.5443 13.9461 14.5443 14.2358 14.3648 14.415Z" fill="white"/>
</svg>
