<svg width="24" height="24" viewBox="0 0 24 24" fill="none" xmlns="http://www.w3.org/2000/svg">
<ellipse cx="11.7455" cy="11.5018" rx="11.516" ry="11.5018" fill="#FA002C"/>
<g clip-path="url(#clip0_95_39)">
<path d="M16.0375 14.1227L14.6476 12.7327C14.3707 12.4569 13.9122 12.4653 13.6258 12.7519L12.9255 13.452C12.8813 13.4276 12.8355 13.4021 12.7873 13.3751C12.3451 13.1301 11.7399 12.7943 11.1031 12.1569C10.4643 11.5183 10.1282 10.9121 9.88241 10.4696C9.85647 10.4228 9.83163 10.3776 9.80709 10.3346L10.2771 9.86538L10.5081 9.63404C10.795 9.34704 10.8029 8.88871 10.5267 8.61217L9.13684 7.22195C8.86064 6.94581 8.40198 6.95419 8.11505 7.24119L7.72333 7.63516L7.73403 7.64579C7.60268 7.81339 7.49292 8.00669 7.41124 8.21515C7.33595 8.41357 7.28907 8.60292 7.26763 8.79265C7.08411 10.3141 7.77938 11.7047 9.66628 13.5916C12.2745 16.1997 14.3764 16.0026 14.4671 15.993C14.6646 15.9694 14.8539 15.9222 15.0462 15.8475C15.2529 15.7668 15.446 15.6572 15.6135 15.5261L15.6221 15.5337L16.0189 15.1451C16.3053 14.8582 16.3135 14.3997 16.0375 14.1227Z" fill="white"/>
</g>
<defs>
<clipPath id="clip0_95_39">
<rect width="9.01252" height="9.00138" fill="white" transform="translate(7.23923 7.01025)"/>
</clipPath>
</defs>
</svg>
