<svg width="24" height="23" viewBox="0 0 24 23" fill="none" xmlns="http://www.w3.org/2000/svg">
<ellipse cx="11.516" cy="11.5018" rx="11.516" ry="11.5018" fill="#FA002C"/>
<path d="M17.9398 11.1694C17.7235 9.59746 16.8901 8.17556 15.6229 7.21652C14.3557 6.25749 12.7584 5.83987 11.1825 6.05555C9.60654 6.27123 8.18105 7.10253 7.2196 8.36658C6.25814 9.63063 5.83947 11.2239 6.05569 12.7958C6.23383 14.0969 6.83323 15.3043 7.76268 16.2343C8.69212 17.1642 9.90071 17.7658 11.2045 17.9475C11.4713 17.9824 11.7401 17.9999 12.0091 18C13.0962 18.0018 14.1629 17.7059 15.093 17.1445C15.1583 17.1053 15.2152 17.0536 15.2605 16.9925C15.3057 16.9313 15.3385 16.8619 15.3568 16.7881C15.3752 16.7143 15.3788 16.6377 15.3674 16.5625C15.3561 16.4874 15.33 16.4151 15.2907 16.35C15.2514 16.2849 15.1996 16.2282 15.1383 16.183C15.077 16.1379 15.0073 16.1052 14.9334 16.0869C14.784 16.0499 14.626 16.0736 14.4942 16.1529C13.8322 16.5492 13.0846 16.7817 12.3141 16.8308C11.5435 16.8799 10.7724 16.7443 10.0652 16.4352C9.35797 16.1262 8.73524 15.6526 8.24907 15.0543C7.76291 14.456 7.42746 13.7502 7.27078 12.9961C7.1141 12.2419 7.14075 11.4613 7.34849 10.7196C7.55624 9.97779 7.93904 9.29643 8.46488 8.73247C8.99072 8.16851 9.6443 7.73836 10.371 7.47799C11.0976 7.21763 11.8762 7.13462 12.6416 7.23591C13.3526 7.3302 14.0336 7.58105 14.6353 7.9703C15.2371 8.35955 15.7445 8.87744 16.1207 9.48645C16.497 10.0955 16.7328 10.7803 16.811 11.4915C16.8891 12.2026 16.8077 12.9222 16.5727 13.598C16.5117 13.7606 16.4015 13.9001 16.2574 13.9973C16.1132 14.0946 15.9424 14.1446 15.7684 14.1406C15.5392 14.1403 15.3195 14.0493 15.1574 13.8876C14.9953 13.726 14.9042 13.5068 14.9039 13.2782V9.70313C14.9039 9.54962 14.8427 9.4024 14.7339 9.29386C14.6251 9.18531 14.4775 9.12433 14.3236 9.12433C14.1697 9.12433 14.0221 9.18531 13.9133 9.29386C13.8045 9.4024 13.7433 9.54962 13.7433 9.70313V9.70853C13.3034 9.37736 12.7781 9.17801 12.2288 9.13382C11.6794 9.08963 11.1288 9.20243 10.6414 9.459C10.154 9.71558 9.74994 10.1053 9.47651 10.5826C9.20307 11.0599 9.07159 11.605 9.09743 12.1542C9.12328 12.7033 9.30539 13.2337 9.62245 13.6834C9.93951 14.133 10.3784 14.4833 10.8878 14.6932C11.3971 14.9031 11.9559 14.9639 12.4987 14.8686C13.0414 14.7732 13.5458 14.5257 13.9526 14.1549C14.117 14.4964 14.3745 14.7848 14.6957 14.987C15.0169 15.1892 15.3886 15.2971 15.7684 15.2982C16.1836 15.3022 16.5897 15.1771 16.9304 14.9403C17.271 14.7036 17.5293 14.3668 17.6694 13.977C17.9821 13.0759 18.0748 12.1134 17.9398 11.1694V11.1694ZM12.0026 13.7547C11.6583 13.7547 11.3217 13.6529 11.0354 13.4621C10.7492 13.2713 10.5261 13.0001 10.3943 12.6828C10.2625 12.3655 10.2281 12.0164 10.2952 11.6796C10.3624 11.3427 10.5282 11.0333 10.7716 10.7905C11.0151 10.5477 11.3253 10.3823 11.663 10.3153C12.0006 10.2483 12.3506 10.2827 12.6687 10.4141C12.9868 10.5455 13.2587 10.7681 13.45 11.0536C13.6412 11.3392 13.7433 11.6749 13.7433 12.0183C13.7428 12.4787 13.5593 12.92 13.2329 13.2456C12.9066 13.5711 12.4641 13.7542 12.0026 13.7547V13.7547Z" fill="white"/>
</svg>
