<svg width="15" height="18" viewBox="0 0 15 18" fill="none" xmlns="http://www.w3.org/2000/svg">
<path d="M7.57143 0.75C9.44689 0.75 11.2455 1.49502 12.5717 2.82117C13.8978 4.14732 14.6429 5.94597 14.6429 7.82143C14.6429 10.749 12.4114 13.8164 8.04286 17.0929C7.90685 17.1949 7.74143 17.25 7.57143 17.25C7.40142 17.25 7.236 17.1949 7.1 17.0929C2.73143 13.8164 0.5 10.749 0.5 7.82143C0.5 5.94597 1.24502 4.14732 2.57117 2.82117C3.89732 1.49502 5.69597 0.75 7.57143 0.75ZM7.57143 2.32143C6.11274 2.32143 4.71379 2.90089 3.68234 3.93234C2.65089 4.96379 2.07143 6.36274 2.07143 7.82143C2.07143 9.95071 3.73557 12.4069 7.13771 15.1333L7.57143 15.4759L8.00514 15.1333C11.4073 12.4069 13.0714 9.95071 13.0714 7.82143C13.0714 6.36274 12.492 4.96379 11.4605 3.93234C10.4291 2.90089 9.03012 2.32143 7.57143 2.32143ZM7.57143 6.25C7.9882 6.25 8.3879 6.41556 8.6826 6.71026C8.9773 7.00496 9.14286 7.40466 9.14286 7.82143C9.14286 8.2382 8.9773 8.6379 8.6826 8.9326C8.3879 9.2273 7.9882 9.39286 7.57143 9.39286C7.15466 9.39286 6.75496 9.2273 6.46026 8.9326C6.16556 8.6379 6 8.2382 6 7.82143C6 7.40466 6.16556 7.00496 6.46026 6.71026C6.75496 6.41556 7.15466 6.25 7.57143 6.25Z" fill="#737373"/>
</svg>
