<svg width="21" height="20" viewBox="0 0 21 20" fill="none" xmlns="http://www.w3.org/2000/svg">
<path d="M19.0043 4.62488C16.0125 -0.000152887 9.90435 -1.37516 5.1674 1.49986C0.555114 4.37488 -0.940763 10.6249 2.05099 15.25L2.30031 15.625L1.30305 19.375L5.04275 18.375L5.41672 18.625C7.03725 19.5 8.78244 20 10.5276 20C12.3975 20 14.2673 19.5 15.8879 18.5C20.5002 15.5 21.8714 9.37492 19.0043 4.62488ZM16.3865 14.25C15.8879 15 15.2646 15.5 14.392 15.625C13.8934 15.625 13.2701 15.875 10.7769 14.875C8.65779 13.875 6.9126 12.2499 5.66603 10.3749C4.91809 9.49992 4.54412 8.37491 4.41947 7.2499C4.41947 6.2499 4.79344 5.37489 5.41672 4.74988C5.66603 4.49988 5.91534 4.37488 6.16466 4.37488H6.78794C7.03725 4.37488 7.28656 4.37488 7.41122 4.87488C7.66053 5.49989 8.28382 6.9999 8.28382 7.1249C8.40847 7.2499 8.40847 7.49991 8.28382 7.62491C8.40847 7.87491 8.28382 8.12491 8.15916 8.24991C8.0345 8.37491 7.90985 8.62491 7.78519 8.74991C7.53588 8.87492 7.41122 9.12492 7.53588 9.37492C8.0345 10.1249 8.65779 10.8749 9.28107 11.4999C10.029 12.1249 10.7769 12.6249 11.6495 12.9999C11.8989 13.1249 12.1482 13.1249 12.2728 12.8749C12.3975 12.6249 13.0208 11.9999 13.2701 11.7499C13.5194 11.4999 13.644 11.4999 13.8934 11.6249L15.8879 12.6249C16.1372 12.7499 16.3865 12.8749 16.5111 12.9999C16.6358 13.3749 16.6358 13.875 16.3865 14.25Z" fill="#737373"/>
</svg>
