<svg width="17" height="17" viewBox="0 0 17 17" fill="none" xmlns="http://www.w3.org/2000/svg">
<path d="M16.1914 7.11912C15.9031 5.02317 14.7919 3.12731 13.1023 1.8486C11.4126 0.569881 9.28291 0.0130618 7.18168 0.300631C5.08045 0.5882 3.1798 1.6966 1.89786 3.382C0.615914 5.0674 0.0576889 7.19173 0.345984 9.28768C0.583501 11.0224 1.38271 12.6323 2.62197 13.8722C3.86123 15.1122 5.47268 15.9143 7.21108 16.1566C7.56679 16.2031 7.92516 16.2264 8.28391 16.2266C9.73335 16.2289 11.1556 15.8344 12.3957 15.0859C12.4828 15.0336 12.5586 14.9648 12.619 14.8832C12.6793 14.8017 12.723 14.7091 12.7475 14.6107C12.772 14.5124 12.7768 14.4101 12.7616 14.3099C12.7465 14.2097 12.7117 14.1134 12.6593 14.0266C12.6069 13.9398 12.5378 13.8641 12.4561 13.8039C12.3743 13.7437 12.2815 13.7002 12.1829 13.6758C11.9837 13.6265 11.7731 13.6581 11.5973 13.7637C10.7146 14.2922 9.7179 14.6021 8.69051 14.6676C7.66312 14.7331 6.63494 14.5523 5.69198 14.1402C4.74902 13.7281 3.91871 13.0968 3.27049 12.299C2.62228 11.5012 2.17501 10.5602 1.9661 9.55468C1.75719 8.54915 1.79272 7.50834 2.06972 6.51931C2.34671 5.53028 2.85712 4.6218 3.55823 3.86986C4.25935 3.11791 5.1308 2.54438 6.09967 2.19722C7.06855 1.85007 8.10668 1.73939 9.12722 1.87444C10.0751 2.00016 10.9832 2.33464 11.7855 2.85363C12.5878 3.37263 13.2643 4.06315 13.7661 4.87517C14.2678 5.68718 14.5822 6.60036 14.6864 7.54853C14.7906 8.4967 14.6821 9.45613 14.3686 10.3573C14.2873 10.574 14.1404 10.7601 13.9482 10.8897C13.7561 11.0193 13.5282 11.0861 13.2963 11.0807C12.9907 11.0803 12.6977 10.959 12.4816 10.7434C12.2655 10.5279 12.1439 10.2356 12.1435 9.93078V5.16407C12.1435 4.95939 12.062 4.7631 11.9169 4.61837C11.7718 4.47365 11.575 4.39234 11.3699 4.39234C11.1647 4.39234 10.9679 4.47365 10.8228 4.61837C10.6777 4.7631 10.5962 4.95939 10.5962 5.16407V5.17127C10.0097 4.72971 9.30918 4.46392 8.57673 4.40499C7.84428 4.34607 7.11016 4.49646 6.46028 4.83857C5.8104 5.18067 5.27165 5.70033 4.90707 6.33673C4.54249 6.97313 4.36718 7.69995 4.40164 8.43212C4.4361 9.16429 4.67892 9.87152 5.10166 10.4711C5.52441 11.0706 6.10961 11.5376 6.78876 11.8175C7.46792 12.0973 8.21294 12.1784 8.93663 12.0513C9.66032 11.9242 10.3327 11.5941 10.8752 11.0997C11.0944 11.5551 11.4378 11.9396 11.866 12.2092C12.2942 12.4788 12.7899 12.6226 13.2963 12.6241C13.8499 12.6294 14.3914 12.4627 14.8456 12.147C15.2998 11.8313 15.6442 11.3824 15.8309 10.8625C16.2478 9.66108 16.3714 8.37776 16.1914 7.11912V7.11912ZM8.27514 10.5662C7.81609 10.5662 7.36734 10.4304 6.98565 10.176C6.60396 9.9216 6.30646 9.56002 6.13079 9.13697C5.95512 8.71393 5.90915 8.24842 5.99871 7.79932C6.08827 7.35021 6.30932 6.93769 6.63393 6.6139C6.95853 6.29012 7.3721 6.06962 7.82233 5.98028C8.27257 5.89095 8.73925 5.9368 9.16336 6.11203C9.58748 6.28726 9.94997 6.58401 10.205 6.96474C10.46 7.34547 10.5962 7.79309 10.5962 8.25099C10.5955 8.8648 10.3507 9.45329 9.91561 9.88732C9.48048 10.3214 8.89051 10.5655 8.27514 10.5662V10.5662Z" fill="#737373"/>
</svg>
