<svg width="150" height="150" viewBox="0 0 150 150" fill="none" xmlns="http://www.w3.org/2000/svg">
<rect width="150" height="150" rx="10" fill="white"/>
<path d="M106.553 74.9979C113.391 69.2828 112.233 63.8416 103.837 61.5519C108.044 53.9377 105.013 49.4797 96.4338 50.5661C97.5203 41.9867 93.0621 38.9563 85.4522 43.1585C83.158 34.7676 77.7166 33.6093 71.9968 40.4468C66.286 33.6093 60.8401 34.7676 58.5504 43.1585C50.936 38.9563 46.4778 41.9867 47.5643 50.5661C38.9891 49.4797 35.9542 53.9377 40.1609 61.5519C31.7653 63.8416 30.6115 69.2828 37.4447 74.9979C30.6115 80.7131 31.7653 86.1588 40.1609 88.4529C35.9542 96.0626 38.9891 100.521 47.5643 99.4342C46.4778 108.009 50.936 111.044 58.5504 106.837C60.8401 115.233 66.286 116.391 71.9968 109.554C77.7166 116.391 83.158 115.233 85.4522 106.837C93.0621 111.044 97.5203 108.009 96.4338 99.4342C105.013 100.521 108.044 96.0626 103.837 88.4529C112.233 86.1588 113.391 80.7131 106.553 74.9979ZM71.9968 107.004C54.3256 107.004 39.9948 92.6731 39.9948 74.9979C39.9948 57.3273 54.3256 42.9968 71.9968 42.9968C89.6769 42.9968 104.003 57.3273 104.003 74.9979C104.003 92.6731 89.6769 107.004 71.9968 107.004Z" fill="#FAB639"/>
<path d="M51 76H93V73H51V76Z" fill="#FAB639"/>
<path d="M71 96H73V53H71V96Z" fill="#FAB639"/>
</svg>
