<svg width="150" height="150" viewBox="0 0 150 150" fill="none" xmlns="http://www.w3.org/2000/svg">
<rect width="150" height="150" rx="10" fill="white"/>
<path d="M106.104 58.149V45.4092H103.538V58.149H98.2467V45.4092H95.6806V58.149H91.7847V71.6731H91.8034C91.9298 74.2887 94.73 76.4629 98.4948 77.1297L98.462 92.8467L98.4808 93.0251C98.4808 93.0392 98.6213 94.3259 97.7784 95.3073C96.9355 96.2887 95.2499 96.81 92.9179 96.81C90.6188 96.81 88.9517 96.2747 87.9262 95.2369C86.7275 93.9972 86.7603 92.2926 86.7603 92.2926V74.2981C86.7603 71.8327 85.9174 69.7431 84.3394 68.2592C82.3633 66.4231 79.7832 65.9442 78.2005 65.8362V45.6346C78.2005 43.6295 76.5897 42 74.5762 42H45.6004C43.5868 42 41.9714 43.6295 41.9714 45.6346V103.314H40V107H80.1579V103.314H78.2005V70.7058C79.0808 70.8091 80.2843 71.0908 81.0381 71.7999C81.6282 72.3634 81.9185 73.1805 81.9185 74.2981V92.1188C81.8998 92.7622 81.9512 95.9413 84.3955 98.5287C86.3482 100.604 89.2187 101.651 92.9179 101.651C96.7576 101.651 99.6281 100.581 101.44 98.4723C103.449 96.1244 103.379 93.3773 103.29 92.5368L103.323 77.125C107.073 76.4535 109.855 74.284 109.981 71.6731H110V58.149H106.104V58.149ZM71.8696 68.7476H48.3069V47.5505H71.8696V68.7476Z" fill="#FAB639"/>
</svg>
