<svg width="150" height="150" viewBox="0 0 150 150" fill="none" xmlns="http://www.w3.org/2000/svg">
<rect width="150" height="150" rx="10" fill="white"/>
<path d="M105.835 69H102.263V74.4784H97.8805V69H94.3128V74.4784H91.2866V69H84.1049V74.4784H81V80.7928H84.1049V86H91.2866V80.7928H94.3128V86H97.8805V80.7928H102.263V86H105.835V80.7928H109V74.4784H105.835V69Z" fill="#FAB639"/>
<path d="M30 77.5047C30 82.7425 34.2893 87 39.5604 87H44V81.5988H39.5604C37.2913 81.5988 35.4403 79.7595 35.4403 77.5047C35.4403 75.2452 37.2913 73.4059 39.5604 73.4059H44V68H39.5604C34.2893 68 30 72.2668 30 77.5047Z" fill="#FAB639"/>
<path d="M45 74H52V68H45V74Z" fill="#FAB639"/>
<path d="M54 74H61V68H54V74Z" fill="#FAB639"/>
<path d="M45 87H52V82H45V87Z" fill="#FAB639"/>
<path d="M54 87H61V82H54V87Z" fill="#FAB639"/>
<path d="M120.785 65.8823C120.619 61.3313 118.805 57.0867 115.675 53.9307C112.527 50.7518 108.404 49 104.06 49C103.631 49 103.197 49.0229 102.768 49.0549L84.8097 50.3859L84.7773 50.3905C75.5907 51.1406 68.643 58.7059 68.9615 67.6112C68.9708 67.8079 68.9754 68 68.9846 68.1921H62V73.4887H68.9615V81.5159H62V86.8079H68.9846C68.9754 87.0046 68.9708 87.2013 68.9615 87.3934C68.643 96.2988 75.5907 103.859 84.7773 104.614L102.768 105.95C103.197 105.982 103.631 106 104.06 106C108.404 106 112.527 104.253 115.675 101.074C118.805 97.9179 120.619 93.6734 120.785 89.1223C121.072 81.4153 121.072 73.5939 120.785 65.8823V65.8823ZM113.501 88.8616C113.298 94.4235 109.152 98.7824 104.06 98.7824C103.825 98.7824 103.589 98.7732 103.358 98.755L85.3683 97.4194C80.0686 96.9757 76.0662 92.6899 76.2462 87.6541C76.4955 80.9167 76.4955 74.0879 76.2462 67.3505C76.0662 62.3146 80.0686 58.0289 85.3683 57.5898L103.326 56.2542H103.358C103.589 56.2313 103.825 56.2222 104.06 56.2222C109.152 56.2222 113.298 60.5811 113.501 66.1476C113.778 73.6808 113.778 81.3238 113.501 88.8616V88.8616Z" fill="#FAB639"/>
</svg>
