<svg width="150" height="150" viewBox="0 0 150 150" fill="none" xmlns="http://www.w3.org/2000/svg">
<rect width="150" height="150" rx="10" fill="white"/>
<path d="M49 41H52.6516V53.0563H52.7799C53.5349 52.0911 54.2949 51.2038 55.0054 50.3847L63.6657 41H68.2006L57.9465 51.6084L69 66H64.6723L55.341 53.7242L52.6516 56.469V66H49V41V41Z" fill="#FAB639"/>
<path d="M86.7311 54.28H75.6728V63.2942H88V66H72V41H87.3656V43.7105H75.6728V51.6084H86.7311V54.28Z" fill="#FAB639"/>
<path d="M99.2964 66V55.3916L90 41H94.3253L98.4713 47.8983C99.6038 49.7899 100.475 51.3159 101.392 53.0563H101.48C102.31 51.4232 103.314 49.7899 104.447 47.8983L108.685 41H113L103.14 55.3574V66H99.2964V66Z" fill="#FAB639"/>
<path d="M113.389 69H44.6113C42.6182 69 41 70.6255 41 72.6337V105.366C41 107.375 42.6182 109 44.6113 109H113.389C115.382 109 117 107.375 117 105.366V72.6337C117 70.6255 115.382 69 113.389 69ZM105.066 98.1439C105.066 100.147 103.448 101.777 101.46 101.777H86.9157C84.9275 101.777 83.3094 100.147 83.3094 98.1439V94.1523H56.5404C54.5473 94.1523 52.9291 92.5218 52.9291 90.5136V87.4814C52.9291 85.4782 54.5473 83.8478 56.5404 83.8478H83.3094V79.8563C83.3094 77.8481 84.9275 76.2226 86.9157 76.2226H101.46C103.448 76.2226 105.066 77.8481 105.066 79.8563V98.1439V98.1439Z" fill="#FAB639"/>
<path d="M96 96H99V83H96V96Z" fill="#FAB639"/>
</svg>
