<svg width="150" height="150" viewBox="0 0 150 150" fill="none" xmlns="http://www.w3.org/2000/svg">
<rect width="150" height="150" rx="10" fill="white"/>
<path d="M84.7327 66.2735C81.3315 62.8735 76.8155 61 72.0014 61C67.1915 61 62.6675 62.8735 59.2703 66.2735C52.2432 73.2898 52.2432 84.7102 59.2703 91.7265C62.6675 95.1306 67.1915 97 72.0014 97C76.8155 97 81.3315 95.1306 84.7327 91.7265C91.7558 84.7102 91.7558 73.2898 84.7327 66.2735ZM65.7952 72.7918C65.3052 73.2898 64.6436 73.5673 63.9372 73.5673C63.2268 73.5673 62.5694 73.2898 62.0713 72.7918C61.5691 72.302 61.2914 71.6327 61.2914 70.9347C61.2914 70.2286 61.5691 69.5673 62.0713 69.0694C63.0594 68.0694 64.8071 68.0694 65.7952 69.0694C66.8241 70.098 66.8241 71.7674 65.7952 72.7918ZM62.0713 85.1959C63.0594 84.2041 64.8071 84.2041 65.7952 85.1959C66.8241 86.2326 66.8241 87.902 65.7952 88.9306C65.3052 89.4245 64.6436 89.702 63.9372 89.702C63.2268 89.702 62.5694 89.4245 62.0713 88.9306C61.5691 88.4367 61.2914 87.7633 61.2914 87.0653C61.2914 86.3592 61.5691 85.702 62.0713 85.1959ZM65.5747 78.9959C65.5747 77.2816 66.2442 75.6694 67.4609 74.4571C68.6777 73.2449 70.2824 72.5755 72.0014 72.5755C73.7123 72.5755 75.3292 73.2449 76.5419 74.4571C77.7505 75.6694 78.4202 77.2816 78.4202 78.9959C78.4202 80.7102 77.7505 82.3265 76.5419 83.5347C75.3292 84.7469 73.7123 85.4163 72.0014 85.4163C70.2824 85.4163 68.6777 84.7469 67.4609 83.5347C66.2442 82.3265 65.5747 80.7102 65.5747 78.9959ZM77.4321 70.9347C77.4321 70.2286 77.7056 69.5673 78.2037 69.0694C79.2 68.0694 80.9437 68.0694 81.9399 69.0694C82.4299 69.5673 82.7075 70.2286 82.7075 70.9347C82.7075 71.6408 82.4299 72.302 81.9399 72.7918C81.4377 73.2898 80.7802 73.5673 80.0738 73.5673C79.3674 73.5673 78.7059 73.2898 78.2037 72.7918C77.7056 72.302 77.4321 71.6408 77.4321 70.9347ZM81.9399 88.9306C81.4377 89.4245 80.7802 89.702 80.0738 89.702C79.3674 89.702 78.7059 89.4245 78.2037 88.9306C77.7056 88.4367 77.4321 87.7633 77.4321 87.0653C77.4321 86.3592 77.7056 85.702 78.2037 85.1959C79.2 84.2041 80.9355 84.2041 81.9399 85.1959C82.9648 86.2326 82.9648 87.902 81.9399 88.9306Z" fill="#FAB639"/>
<path d="M103.602 84.1634H94.9575C94.9493 84.2084 94.9372 84.2616 94.9249 84.3107C94.9085 84.368 94.892 84.413 94.8797 84.4662C94.8674 84.503 94.8593 84.548 94.8429 84.5849C94.8347 84.6135 94.8347 84.6381 94.8142 84.6667C94.7897 84.814 94.7528 84.9572 94.7036 85.1005C94.6954 85.1373 94.6871 85.17 94.6707 85.2109C94.6585 85.2191 94.6583 85.2191 94.6583 85.2314C94.6501 85.2478 94.6502 85.2682 94.6379 85.2846C94.5723 85.5056 94.5028 85.7265 94.429 85.9475C94.4085 86.0007 94.3919 86.0498 94.3837 86.103C94.3674 86.1276 94.3551 86.1603 94.3469 86.1849V86.193C94.2895 86.3363 94.2445 86.4795 94.1912 86.6186C94.1338 86.7946 94.0682 86.9501 93.9985 87.126C93.9862 87.1301 93.9863 87.1506 93.9863 87.1588V87.171C93.9863 87.1792 93.9781 87.1792 93.9781 87.1874C93.9453 87.2611 93.9206 87.3429 93.8878 87.4206C93.8878 87.4411 93.8756 87.4452 93.8592 87.4616C93.81 87.6089 93.7443 87.7521 93.6747 87.8953C93.6542 87.9322 93.6461 87.9731 93.6174 88.0058C93.5518 88.1818 93.4739 88.3577 93.3879 88.5296C93.2936 88.7424 93.1869 88.9511 93.0762 89.1557C92.9738 89.3562 92.8631 89.569 92.7524 89.7736C92.5557 90.1214 92.3549 90.4692 92.1336 90.8089C92.0885 90.9112 92.023 91.0012 91.9615 91.0953C91.9205 91.1526 91.8836 91.2017 91.859 91.2508C91.7934 91.3613 91.7277 91.4636 91.6581 91.5659C91.5556 91.705 91.4572 91.8523 91.3506 91.9874C91.281 92.106 91.1949 92.2288 91.1047 92.3475C90.912 92.6298 90.699 92.9081 90.4694 93.1822C90.3588 93.3255 90.2482 93.4605 90.1252 93.5955C90.0063 93.7551 89.8668 93.9065 89.7315 94.0579C89.7028 94.0825 89.6743 94.1111 89.6579 94.1398C89.6579 94.148 89.6496 94.148 89.6373 94.1602V94.1684C89.6332 94.1766 89.6333 94.1766 89.6333 94.1766C89.6005 94.2134 89.5758 94.2421 89.5348 94.2707C89.4979 94.3075 89.4651 94.3526 89.4241 94.3853C89.4077 94.4221 89.3708 94.463 89.3298 94.4999C89.252 94.5694 89.1865 94.6472 89.1209 94.7208C89.1045 94.7372 89.0882 94.7536 89.0759 94.774C89.0759 94.774 89.0595 94.7822 89.0595 94.7945C89.0308 94.8191 89.0144 94.8477 88.9816 94.8763V103.576H86.2231V97.3316C86.1001 97.4216 85.9812 97.5157 85.85 97.5976C85.7599 97.6712 85.6697 97.7367 85.5754 97.7899C85.4976 97.8635 85.4032 97.929 85.3131 97.9822C85.2352 98.0477 85.1533 98.1009 85.0713 98.15C84.9893 98.2114 84.9031 98.2686 84.8129 98.3137C84.7883 98.3423 84.7474 98.3587 84.7229 98.3791C84.4482 98.5633 84.1694 98.7351 83.8907 98.8865C83.7636 98.9766 83.6244 99.0502 83.4932 99.1239C83.3292 99.2262 83.1571 99.3162 82.9891 99.398C82.8661 99.4635 82.7596 99.529 82.6366 99.5822C82.5751 99.6231 82.5012 99.6558 82.4357 99.6845C82.325 99.7377 82.2143 99.795 82.1036 99.8359C81.9479 99.9136 81.7923 99.9873 81.6283 100.069C81.5873 100.09 81.5421 100.106 81.497 100.126C81.4765 100.143 81.4519 100.155 81.4314 100.163C81.415 100.171 81.3945 100.18 81.3781 100.18C81.3658 100.18 81.3577 100.18 81.3495 100.188C81.3372 100.188 81.3371 100.2 81.3371 100.2C81.333 100.208 81.3209 100.216 81.3127 100.216C81.0627 100.327 80.8043 100.429 80.5584 100.527C80.4026 100.593 80.2428 100.65 80.0788 100.708C80.0051 100.732 79.9272 100.761 79.8575 100.777C79.8124 100.798 79.755 100.814 79.714 100.834C79.6935 100.843 79.6648 100.851 79.6443 100.851C79.5828 100.879 79.5133 100.9 79.4518 100.928C79.3329 100.961 79.2098 101.006 79.0827 101.047C78.9885 101.084 78.8983 101.109 78.8082 101.137C78.6401 101.194 78.4681 101.239 78.3 101.284C77.7753 101.428 77.2424 101.559 76.6973 101.681C76.6317 101.69 76.5621 101.706 76.4966 101.718C76.4761 101.726 76.4514 101.726 76.4227 101.735C76.2464 101.771 76.062 101.808 75.8775 101.837H75.8529C75.8078 101.845 75.7587 101.857 75.7054 101.861C75.6767 101.87 75.6397 101.87 75.5987 101.882C75.4922 101.902 75.3816 101.919 75.2627 101.939C75.1971 101.947 75.1234 101.956 75.062 101.964C74.7832 102.005 74.4963 102.042 74.2176 102.062H74.193C73.8446 102.103 73.492 102.132 73.1354 102.152C73.0903 102.152 73.033 102.16 72.9797 102.16C72.7748 102.168 72.5615 102.168 72.3607 102.172L66.0321 108.495L64.0729 106.543L68.6471 101.98C68.02 101.902 67.3969 101.796 66.778 101.669C66.4542 101.595 66.1346 101.518 65.8107 101.44C65.45 101.358 65.0935 101.256 64.7328 101.137C64.5197 101.084 64.3025 101.006 64.0894 100.937C63.9418 100.892 63.7819 100.834 63.6384 100.777C63.4909 100.732 63.331 100.671 63.1875 100.613C63.0195 100.548 62.8636 100.482 62.6956 100.413C62.5521 100.356 62.3923 100.294 62.2489 100.229C61.9333 100.098 61.63 99.9587 61.3266 99.8032C61.2365 99.7663 61.1504 99.7213 61.0603 99.6763C60.9209 99.6108 60.7896 99.5495 60.6626 99.4717C60.6011 99.4349 60.5273 99.3981 60.4494 99.353C60.4289 99.3449 60.4126 99.3326 60.3962 99.3162C60.3798 99.308 60.3675 99.308 60.347 99.2998C60.347 99.2876 60.343 99.2876 60.343 99.2876C60.3143 99.2671 60.2856 99.263 60.2569 99.2425C60.1667 99.2057 60.0848 99.1607 59.9987 99.1034C59.843 99.0298 59.6872 98.9397 59.5396 98.8456C59.3183 98.7188 59.0969 98.5796 58.8837 98.4528C58.6747 98.3137 58.4616 98.1786 58.2485 98.0313C57.9821 97.8472 57.7197 97.6548 57.4492 97.4502C57.318 97.3561 57.1992 97.2661 57.0721 97.1638C56.818 96.9633 56.5719 96.771 56.3342 96.5664C56.3342 96.5582 56.322 96.5582 56.3138 96.55C56.2687 96.5091 56.2236 96.4763 56.1785 96.4231C56.1498 96.3986 56.1294 96.3904 56.113 96.3658C56.1048 96.3577 56.0842 96.3372 56.076 96.3372C56.0391 96.3086 56.0064 96.2799 55.9777 96.2554C55.7359 96.0426 55.494 95.8298 55.2644 95.6129H46.3126V92.8508H52.7723C52.5838 92.6134 52.3993 92.3679 52.2353 92.1265C52.0591 91.8769 51.887 91.6314 51.7272 91.3817C51.6001 91.2017 51.4813 91.0012 51.3583 90.8089C51.1288 90.4365 50.9073 90.0559 50.7065 89.6794C50.5958 89.4871 50.4933 89.2866 50.3991 89.0902C50.3376 88.9633 50.2762 88.8324 50.2065 88.7055C49.9606 88.2186 49.7393 87.7235 49.5467 87.216C49.3417 86.7004 49.149 86.1849 48.9851 85.6611C48.9728 85.6324 48.9645 85.6161 48.9563 85.5874C48.8989 85.4196 48.8538 85.256 48.8088 85.0923C48.7637 84.9163 48.7063 84.7485 48.6613 84.5767C48.6162 84.4007 48.5711 84.237 48.526 84.0611C48.4563 83.791 48.3948 83.5209 48.3374 83.2427C48.321 83.1895 48.3129 83.124 48.3006 83.0504C48.2842 82.9849 48.2759 82.9194 48.2636 82.858C48.2267 82.7066 48.2022 82.5634 48.1735 82.4243C48.1735 82.4079 48.1735 82.3874 48.1653 82.3792C48.1161 82.1133 48.0792 81.8514 48.0464 81.5895C48.0054 81.299 47.9686 81.0289 47.944 80.7424C47.944 80.7424 47.944 80.7342 47.9358 80.7261C47.903 80.3741 47.8783 80.0263 47.8619 79.6744C47.8496 79.6212 47.8496 79.5639 47.8373 79.5107C47.8332 79.3348 47.8333 79.1506 47.8333 78.9747L41.4144 72.5747L43.3738 70.6269L48.0054 75.255C48.0915 74.6207 48.2022 73.9947 48.3292 73.3645C49.2433 69.0024 51.3583 64.9799 54.5185 61.7104V52.9984H57.281V59.2428C59.9822 57.2009 63.0522 55.7687 66.3313 55.0158V44C59.105 45.1253 52.4362 48.4849 47.1692 53.7432C33.6103 67.2796 33.6103 89.303 47.1692 102.839C53.7397 109.395 62.4702 113 71.7541 113C81.0461 113 89.7768 109.395 96.3431 102.839C101.622 97.5689 104.832 91.0012 106 84.1634H103.602V84.1634Z" fill="#FAB639"/>
<path d="M113 79C113.041 68.2318 108.997 57.4471 100.874 49.2467C93.1402 41.4481 82.9108 37.1118 72 37V54.6557C72.2586 54.6639 72.505 54.6639 72.7677 54.6722C72.821 54.6846 72.8661 54.6846 72.9236 54.6929C73.2807 54.7136 73.6337 54.7302 73.9949 54.7675C73.9949 54.7675 73.9949 54.7675 74.0031 54.7675C74.6107 54.8338 75.21 54.9249 75.8053 55.0367C75.9161 55.0533 76.0309 55.074 76.1418 55.0905C76.659 55.1982 77.1721 55.3183 77.6811 55.455C77.874 55.5047 78.067 55.5585 78.2518 55.6165C78.6951 55.7449 79.1302 55.8857 79.5612 56.0431C79.8157 56.1342 80.0579 56.2253 80.3124 56.3206C80.6901 56.4697 81.0555 56.6312 81.429 56.7969C81.7123 56.9377 81.9996 57.0661 82.2869 57.2152C82.4675 57.3063 82.6563 57.4098 82.8369 57.5092C83.272 57.7453 83.703 57.9979 84.1299 58.2547C84.2736 58.35 84.4133 58.4452 84.561 58.5488C84.9962 58.8263 85.4313 59.1203 85.8418 59.4392C86.0019 59.5593 86.166 59.6918 86.3261 59.812C86.6996 60.1184 87.0691 60.4249 87.4345 60.7438C87.6069 60.9095 87.7915 61.0669 87.968 61.2367C88.1404 61.4023 88.3293 61.5639 88.4894 61.7295C88.6289 61.8662 88.7604 61.9987 88.8794 62.1395C88.9163 62.1685 88.9449 62.1934 88.9532 62.2224C88.9696 62.2307 88.982 62.2306 88.9656 62.2389C89.1462 62.4253 89.3226 62.6324 89.4991 62.827C89.5443 62.8726 89.5813 62.914 89.6182 62.9596C89.7578 63.117 89.8933 63.2702 90.0165 63.4317C90.2012 63.6347 90.3654 63.8417 90.5049 64.053C90.6404 64.2021 90.7512 64.3636 90.8579 64.521C90.9071 64.5748 90.9563 64.6328 90.981 64.6949C91.1205 64.8647 91.2315 65.0304 91.3423 65.2085C91.3629 65.2209 91.371 65.2209 91.3628 65.225C91.4244 65.3037 91.4736 65.3783 91.5187 65.4611C91.5433 65.4901 91.5639 65.5149 91.5762 65.5522C91.6994 65.751 91.8308 65.9374 91.9499 66.1403C91.9622 66.1486 91.9621 66.1486 91.9621 66.1569C92.036 66.2811 92.11 66.393 92.1798 66.5131C92.2495 66.6332 92.311 66.745 92.3726 66.8693C92.4013 66.9024 92.4219 66.9397 92.4383 66.9769C92.4753 67.0515 92.5245 67.126 92.5574 67.2006C92.6066 67.2751 92.6435 67.3497 92.6722 67.4201C92.7543 67.5526 92.8282 67.6934 92.8939 67.8342C93.0499 68.12 93.1896 68.4099 93.3086 68.7081L93.3168 68.7164C93.3332 68.7454 93.3537 68.7744 93.3537 68.8034C93.3701 68.8158 93.3824 68.8489 93.3824 68.8655C93.4275 68.969 93.4727 69.0602 93.5096 69.1637C93.5466 69.2341 93.5754 69.2962 93.5918 69.3583C93.6411 69.4577 93.678 69.5571 93.7109 69.6483C93.7314 69.6773 93.7394 69.7021 93.7518 69.7311C93.7641 69.7767 93.7848 69.8263 93.8053 69.876C93.9161 70.1494 94.0187 70.431 94.1214 70.7085C94.2199 70.9694 94.3019 71.2304 94.3799 71.4913C94.4702 71.7522 94.544 72.0214 94.6138 72.2947C94.737 72.6799 94.8314 73.0609 94.9135 73.4668C95.0038 73.8644 95.09 74.2661 95.1516 74.6637C95.2173 75.0034 95.2624 75.3347 95.3075 75.6784C95.3609 76.1547 95.4103 76.6393 95.4472 77.1321C95.476 77.5463 95.4922 77.9729 95.5046 78.3871C95.5128 78.5361 95.521 78.6852 95.521 78.8343C95.521 78.8882 95.5128 78.942 95.5128 79H113V79ZM103.99 68.2608C105.677 68.2608 107.044 69.64 107.044 71.338C107.044 73.0444 105.677 74.4235 103.99 74.4235C102.302 74.4235 100.931 73.0444 100.931 71.338C100.931 69.64 102.302 68.2608 103.99 68.2608ZM79.282 49.665C77.5908 49.665 76.2197 48.2817 76.2197 46.5837C76.2197 44.8773 77.5908 43.4982 79.282 43.4982C80.9691 43.4982 82.3362 44.8773 82.3362 46.5837C82.3362 48.2817 80.9691 49.665 79.282 49.665Z" fill="#FAB639"/>
</svg>
