<svg width="150" height="150" viewBox="0 0 150 150" fill="none" xmlns="http://www.w3.org/2000/svg">
<rect width="150" height="150" rx="10" fill="white"/>
<path d="M79.2418 94H77.7581C75.6842 94 74 95.8679 74 98.1732V99.8268C74 102.132 75.6842 104 77.7581 104H79.2418C81.3196 104 83 102.132 83 99.8268V98.1732C83 95.8679 81.3196 94 79.2418 94Z" fill="#FAB639"/>
<path d="M111.173 55.7493H98.6247C97.9322 55.7493 97.3007 56.0092 96.8128 56.4249C96.5384 56.6502 96.3163 56.9274 96.1464 57.2392L86.1111 69.5742H83.0187V49.7464C83.0187 47.6762 81.333 46 79.2511 46H77.7615C75.6839 46 73.9982 47.6762 73.9982 49.7464V67.7031H71.0451C70.4832 67.7031 70.0085 68.4827 69.8256 69.5742H65.3655C65.1869 68.4827 64.7121 67.7031 64.1459 67.7031H58.2397C57.6778 67.7031 57.203 68.4827 57.0245 69.5742H52.2507C52.1419 68.643 51.3535 67.9153 50.3909 67.9153H41.8409C40.8783 67.9153 40.09 68.643 39.9811 69.5742H39.7633C37.6857 69.5742 36 71.2502 36 73.3162V73.4331C36 75.499 37.6857 77.1796 39.7633 77.1796H73.9982V87.2579C73.9982 89.3238 75.6839 91 77.7615 91H79.2511C81.333 91 83.0187 89.3238 83.0187 87.2579V77.1796H86.1111L96.1464 89.5145C96.3163 89.8263 96.5384 90.0991 96.8085 90.3287H96.8128C97.3007 90.7401 97.9322 91 98.6247 91H111.173C112.733 91 114 89.744 114 88.1935V58.5559C114 57.0054 112.733 55.7493 111.173 55.7493V55.7493ZM109.762 82.7319H105.215V63.0819H109.762V82.7319Z" fill="#FAB639"/>
</svg>
