<svg width="150" height="150" viewBox="0 0 150 150" fill="none" xmlns="http://www.w3.org/2000/svg">
<rect width="150" height="150" rx="10" fill="white"/>
<path d="M74.9976 39C55.1475 39 39 55.1539 39 75.0164C39 82.4291 41.2337 89.5507 45.4571 95.6113C49.5914 101.526 55.3212 106.028 62.0224 108.62C62.2711 108.714 62.5198 108.761 62.7685 108.761C63.5944 108.761 64.3781 108.258 64.6925 107.437C65.1054 106.376 64.5752 105.179 63.5099 104.77C51.3183 100.052 43.1249 88.0954 43.1249 75.0164C43.1249 57.4307 57.4235 43.1264 74.9976 43.1264C92.5764 43.1264 106.875 57.4307 106.875 75.0164C106.875 87.3537 99.5827 98.691 88.522 103.893L86.9734 100.381L80.657 110.113L91.6473 111L90.1832 107.676C95.9365 105 100.868 100.864 104.538 95.6113C108.766 89.5507 111 82.4291 111 75.0164C111 55.1539 94.8477 39 74.9976 39V39Z" fill="#FAB639"/>
<path d="M80 78.1671C80 80.8361 77.7602 83 74.9976 83C72.235 83 70 80.8361 70 78.1671V55.8283C70 53.1594 72.235 51 74.9976 51C77.7602 51 80 53.1594 80 55.8283V78.1671Z" fill="#FAB639"/>
<path d="M80 91.4978C80 93.9841 77.7602 96 74.9976 96C72.2398 96 70 93.9841 70 91.4978C70 89.0158 72.2398 87 74.9976 87C77.7602 87 80 89.0158 80 91.4978Z" fill="#FAB639"/>
</svg>
