<svg width="150" height="150" viewBox="0 0 150 150" fill="none" xmlns="http://www.w3.org/2000/svg">
<rect width="150" height="150" rx="10" fill="white"/>
<path d="M119 58.6965V53.1548H104.229V48H70.1973C67.0678 48 64.5199 50.5634 64.5199 53.7281V62.5324C64.3768 62.5277 64.2198 62.5184 64.026 62.5184C63.3521 62.5044 62.3781 62.5044 61.1596 62.6116C59.9179 62.7281 58.3993 62.9192 56.6638 63.4832C54.9837 64.0565 52.8788 64.9979 51.291 67.1279C50.5109 68.2092 49.9985 69.4583 49.7862 70.9078C49.6062 72.101 49.6432 73.6484 50.0494 75.0187C50.4417 76.4216 51.1803 77.7173 52.048 78.7939C52.9158 79.8892 53.8897 80.8213 54.8959 81.6743C56.913 83.3755 59.0733 84.797 60.9473 86.3444C61.8843 87.1181 62.7335 87.9197 63.4028 88.7587C64.0398 89.593 64.5014 90.4878 64.6445 91.2942C64.6445 91.3781 64.6629 91.4573 64.6952 91.5412C64.7137 91.6251 64.7137 91.8441 64.7137 91.9933L64.7322 92.245V92.2636C64.7322 92.2636 64.7322 92.2729 64.7322 92.2636V92.2869V92.3428L64.6952 92.753C64.6952 93.3123 64.5891 93.825 64.4829 94.3097C64.2706 95.2791 63.8459 96.0016 63.3336 96.4537C63.0705 96.682 62.7659 96.8405 62.4335 96.9524C62.272 97.0083 62.0966 97.0502 61.9535 97.0642C61.9212 97.0689 61.8842 97.0736 61.9027 97.0689C61.9027 97.0689 61.9212 97.0735 61.8658 97.0735C61.9212 97.0735 61.815 97.0735 61.7965 97.0735L61.3164 97.0689C60.0609 97.0549 58.8055 97.0456 57.5685 97.0363C52.6527 97.0036 48.0507 96.9803 44.1226 96.957C36.2527 96.9104 31 96.8825 31 96.8825V102C31 102 36.2527 101.967 44.1226 101.921C48.0507 101.902 52.6527 101.874 57.5685 101.846C58.8055 101.837 60.0609 101.823 61.3164 101.814L61.7965 101.809L61.9535 101.804L62.1658 101.795C62.3412 101.786 62.4474 101.767 62.572 101.748C63.0705 101.678 63.509 101.567 63.9521 101.408C64.8384 101.091 65.6692 100.611 66.3754 99.9679C67.8109 98.6815 68.5864 96.9291 68.9234 95.3351C69.0849 94.5287 69.2049 93.7271 69.2049 92.9627L69.2233 92.3801V92.3102V92.1098V91.9839L69.2049 91.7369C69.191 91.5552 69.1911 91.448 69.1541 91.2009L69.0479 90.4692C68.6925 88.6561 67.7925 87.1833 66.8185 85.9575C65.8261 84.7551 64.7321 83.7949 63.6521 82.9327C61.4965 81.2222 59.3548 79.8659 57.5685 78.4024C55.7822 76.9622 54.402 75.4195 53.9404 73.8441C53.7096 73.0285 53.6405 72.3107 53.7651 71.3925C53.8528 70.7214 54.1021 69.9943 54.4898 69.4583C55.2514 68.349 56.5945 67.6126 57.8869 67.1605C59.1932 66.7038 60.4672 66.508 61.5104 66.3869C63.0151 66.233 64.0583 66.247 64.5199 66.2657V75.1165C64.5199 78.2812 67.0678 80.8447 70.1973 80.8447H104.229V75.6898H119V70.1528H104.229V58.6965H119V58.6965Z" fill="#FAB639"/>
</svg>
