<svg width="150" height="150" viewBox="0 0 150 150" fill="none" xmlns="http://www.w3.org/2000/svg">
<rect width="150" height="150" rx="10" fill="white"/>
<path d="M122.736 62.6693C122.736 62.6693 121.722 60.4 120.468 60.4H108.764C107.51 60.4 106.491 61.4149 106.491 62.6693V64.8728H103.303C103.303 62.6975 103.303 61.335 103.303 61.1987C103.303 60.4 102.467 60.4705 102.467 60.4705H95.3563C95.3563 49.3308 89.7301 49.3637 89.7301 49.3637H77.1533V45.5816H89.7301V40H48.0218V45.5816H61.7352V49.3637C61.7352 49.3637 54.747 49.3637 49.1114 49.3637L41.5174 55.1708H35.6329C34.3789 55.1708 33.3645 56.1904 33.3645 57.4448V72.0142H29.5793V56.4488H24V95.5245H29.5793V79.4423H33.3645V94.5332C33.3645 95.7876 34.3789 96.8025 35.6329 96.8025H41.5174L59.9881 110C59.9881 110 93.3698 110 98.6203 110C103.871 110 103.303 105.532 103.303 105.532C103.303 105.532 103.303 102.821 103.303 98.7429H106.491V103.756C106.491 105.01 107.51 106.03 108.764 106.03H120.468C121.722 106.03 122.736 103.756 122.736 103.756L126 94.2466V72.1787L122.736 62.6693V62.6693ZM49.7172 84.7138C51.1543 84.7138 52.6195 84.4319 53.5682 83.9949L54.0519 85.7944C53.1878 86.1796 51.4502 86.6213 49.2006 86.6213C44.0816 86.6213 40.2071 83.5016 40.2071 77.8166C40.2071 72.3854 44.0816 68.7301 49.7454 68.7301C51.9949 68.7301 53.4602 69.1718 54.0801 69.4771L53.5119 71.3048C52.6195 70.8913 51.3468 70.5813 49.8252 70.5813C45.5469 70.5813 42.6962 73.1841 42.6962 77.7415C42.6962 81.9887 45.2745 84.7138 49.7172 84.7138V84.7138ZM70.5596 86.3347H68.202V78.2019H59.3682V86.3347H56.9825V68.9885H59.3682V76.2709H68.202V68.9885H70.5596V86.3347ZM84.9492 86.3347H74.6501V68.9885H84.5406V70.8444H77.0359V76.3508H84.1086V78.2019H77.0359V84.4835H84.9492V86.3347V86.3347ZM96.413 84.7138C97.8501 84.7138 99.3107 84.4319 100.259 83.9949L100.748 85.7944C99.8789 86.1796 98.146 86.6213 95.8964 86.6213C90.7727 86.6213 86.8982 83.5016 86.8982 77.8166C86.8982 72.3854 90.7727 68.7301 96.4412 68.7301C98.6907 68.7301 100.151 69.1718 100.776 69.4771L100.208 71.3048C99.3106 70.8913 98.0379 70.5813 96.521 70.5813C92.238 70.5813 89.392 73.1841 89.392 77.7415C89.392 81.9887 91.9656 84.7138 96.413 84.7138V84.7138ZM113.808 86.3347L107.792 77.8166L106.059 79.7241V86.3347H103.674V68.9885H106.059V77.3515H106.139C106.628 76.6843 107.111 76.0642 107.576 75.5004L113.155 68.9885H116.058L109.474 76.3508L116.603 86.3347H113.808V86.3347Z" fill="#FAB639"/>
</svg>
