<svg width="150" height="150" viewBox="0 0 150 150" fill="none" xmlns="http://www.w3.org/2000/svg">
<rect width="150" height="150" rx="10" fill="white"/>
<path d="M91.5525 47.7111C80.003 47.3639 77.7203 57.8218 77.5009 65.1181C76.9002 65.0024 76.2786 64.9393 75.6361 64.9393C74.4973 64.9393 73.4161 65.1339 72.3922 65.4864C71.593 64.7078 71.2117 63.682 71.1125 62.4353C70.7938 58.8371 76.4196 56.3752 76.5764 51.1252C76.7592 45.6543 74.1161 41.4195 67.5917 40.2517C61.6629 39.1944 49.1732 40.783 48.6561 58.5793C48.3165 70.2103 58.701 72.5197 65.9514 72.7248C65.7895 73.4403 65.6903 74.182 65.6903 74.95C65.6903 76.1547 65.9096 77.3015 66.3118 78.3746C65.5283 79.1795 64.5098 79.5582 63.2666 79.674C59.704 80.0001 57.2594 74.324 52.0357 74.1557C46.6136 73.9821 42.4085 76.6544 41.2489 83.2248C40.2041 89.1797 41.766 101.758 59.4428 102.289C71.0758 102.636 73.3167 92.0256 73.4943 84.7241C74.1943 84.8713 74.8943 84.9608 75.6361 84.9608C76.6599 84.9608 77.6576 84.803 78.5978 84.5084C79.4023 85.2869 79.7836 86.318 79.8828 87.5647C80.2224 91.1629 74.5756 93.6301 74.4137 98.8748C74.2361 104.346 76.9001 108.58 83.4036 109.748C89.3272 110.806 101.822 109.217 102.339 91.4207C102.679 79.9159 92.5293 77.5277 85.2841 77.2804C85.4669 76.5334 85.5662 75.7549 85.5662 74.95C85.5662 73.698 85.3468 72.5091 84.9237 71.4044C85.6655 70.7521 86.6057 70.4313 87.7287 70.326C91.2913 69.9999 93.7307 75.676 98.9595 75.8443C104.382 76.0179 108.587 73.3456 109.746 66.7805C110.807 60.8203 109.224 48.2424 91.5525 47.7111V47.7111ZM75.495 77.6487C74.0585 77.6487 72.8728 76.4651 72.8728 74.9974C72.8728 73.5402 74.0585 72.3461 75.495 72.3461C76.9576 72.3461 78.1382 73.5402 78.1382 74.9974C78.1382 76.4651 76.9576 77.6487 75.495 77.6487Z" fill="#FAB639"/>
</svg>
