<svg width="150" height="150" viewBox="0 0 150 150" fill="none" xmlns="http://www.w3.org/2000/svg">
<rect width="150" height="150" rx="10" fill="white"/>
<path d="M119 55H47.7585V76.6217H31V80.4274H69.2398C68.124 81.9391 67.4699 83.7849 67.4699 85.7888C67.4699 90.8647 71.6774 95 76.8618 95C82.0327 95 86.2537 90.8647 86.2537 85.7888C86.2537 83.7849 85.586 81.9391 84.4703 80.4274H89.3456C88.2298 81.9391 87.5755 83.7849 87.5755 85.7888C87.5755 90.8647 91.7831 95 96.9541 95C102.138 95 106.346 90.8647 106.346 85.7888C106.346 83.7849 105.692 81.9391 104.576 80.4274H119V55V55ZM83.0768 85.7888C83.0768 89.1507 80.2807 91.8843 76.8618 91.8843C73.4294 91.8843 70.6468 89.1507 70.6468 85.7888C70.6468 83.4772 71.9687 81.4601 73.891 80.4274H79.8147C81.7549 81.4601 83.0768 83.4772 83.0768 85.7888ZM103.187 85.7888C103.187 89.1507 100.386 91.8843 96.9541 91.8843C93.5352 91.8843 90.7346 89.1507 90.7346 85.7888C90.7346 83.4772 92.0564 81.4601 94.0011 80.4274H99.9249C101.865 81.4601 103.187 83.4772 103.187 85.7888Z" fill="#FAB639"/>
</svg>
