<svg width="150" height="150" viewBox="0 0 150 150" fill="none" xmlns="http://www.w3.org/2000/svg">
<rect width="150" height="150" rx="10" fill="white"/>
<path d="M116.769 64.8834C116.569 64.449 111.852 54.2295 103.137 52.3009C99.1107 51.4036 95.0078 52.4025 90.905 55.2568C88.7513 52.5567 84.1712 49 75.0871 49C65.959 49 61.3187 52.5892 59.1208 55.2811C55.018 52.4065 50.8992 51.4077 46.8564 52.3009C38.1414 54.2295 33.4248 64.449 33.2403 64.8834C32.6387 66.1746 33.2083 67.7053 34.4837 68.2981C35.759 68.8909 37.267 68.3224 37.8646 67.0272C37.8967 66.946 41.783 58.6957 47.9473 57.3315C49.9767 56.8849 52.1103 57.2422 54.3402 58.3871C49.8082 61.7652 46.716 69.2766 46.716 78.2333C46.716 90.4383 52.4512 100 59.7666 100C67.098 100 72.8292 90.4383 72.8292 78.2333C72.8292 68.493 69.1715 60.4457 63.9617 57.5954C65.7464 55.9917 69.0792 54.1483 75.0871 54.1483C81.1151 54.1483 84.3717 55.9713 86.0922 57.5589C80.8504 60.3807 77.1807 68.4524 77.1807 78.2333C77.1807 90.4383 82.9118 100 90.2272 100C97.5426 100 103.274 90.4383 103.274 78.2333C103.274 69.2766 100.186 61.7652 95.6536 58.3871C97.8634 57.2503 100.001 56.8849 102.03 57.3274C108.271 58.6957 112.097 66.9501 112.141 67.0272C112.558 67.9733 113.497 68.5336 114.447 68.5336C114.8 68.5336 115.169 68.4564 115.51 68.2981C116.786 67.7053 117.355 66.1746 116.769 64.8834V64.8834ZM67.7437 78.2333C67.7437 88.0265 63.5326 94.8476 59.7666 94.8476C56.0006 94.8476 51.8055 88.0265 51.8055 78.2333C51.8055 68.4442 56.0006 61.619 59.7666 61.619C63.5326 61.619 67.7437 68.4442 67.7437 78.2333ZM98.1883 78.2333C98.1883 88.0265 93.9932 94.8476 90.2272 94.8476C86.4612 94.8476 82.2661 88.0265 82.2661 78.2333C82.2661 68.4442 86.4612 61.619 90.2272 61.619C93.9932 61.619 98.1883 68.4442 98.1883 78.2333Z" fill="#FAB639"/>
</svg>
