<svg width="150" height="150" viewBox="0 0 150 150" fill="none" xmlns="http://www.w3.org/2000/svg">
<rect width="150" height="150" rx="10" fill="white"/>
<path fill-rule="evenodd" clip-rule="evenodd" d="M92.0261 87.2453C92.0261 89.1203 90.505 90.6483 88.6238 90.6483H85.8391C83.9636 90.6483 82.4364 89.1203 82.4364 87.2453V76.7135H73.7482C72.9244 80.0626 70.3099 82.6775 66.9612 83.5009C61.9908 84.7228 56.9704 81.6847 55.7481 76.7135H47.0582V87.2453C47.0582 89.1203 45.5327 90.6483 43.6568 90.6483H40.8712C38.9892 90.6483 37.4685 89.1203 37.4685 87.2453V61.7502C37.4685 59.8748 38.9892 58.3537 40.8712 58.3537H43.6568C45.5327 58.3537 47.0582 59.8748 47.0582 61.7502V72.2873H55.7477C56.571 68.9387 59.1856 66.3241 62.5342 65.5004C67.5047 64.2784 72.5262 67.3169 73.7478 72.2873H82.436V61.7502C82.436 59.8748 83.9632 58.3537 85.8387 58.3537H88.6234C90.505 58.3537 92.0257 59.8748 92.0257 61.7502V87.2453H92.0261ZM64.7477 69.6593C62.0739 69.6593 59.9058 71.827 59.9058 74.5008C59.9058 77.1751 62.0735 79.3423 64.7477 79.3423C67.4216 79.3423 69.5896 77.1747 69.5896 74.5008C69.5896 71.827 67.4216 69.6593 64.7477 69.6593Z" fill="#FAB639"/>
<path d="M77.8428 63.1379H51.6513C51.0858 63.1379 50.6025 62.7299 50.5075 62.1725C50.4126 61.6148 50.7338 61.0701 51.2675 60.8831L71.1041 53.9341H51.6513C51.0849 53.9341 50.6012 53.5248 50.5075 52.9667C50.4134 52.4081 50.7367 51.8634 51.2715 51.6776L71.0337 44.8293H51.6513V42.509H77.9246C78.491 42.509 78.9747 42.9178 79.0688 43.4764C79.163 44.035 78.8401 44.5796 78.3048 44.765L58.5422 51.6134H77.9246C78.4902 51.6134 78.9739 52.0214 79.0684 52.5787C79.163 53.1365 78.8421 53.6812 78.3081 53.8682L58.4718 60.8176H77.8428V63.1379Z" fill="#FAB639"/>
<path d="M116.1 73.3403H95.2201V75.6602H116.1V73.3403Z" fill="#FAB639"/>
<path d="M111.136 88.3923C111.136 88.3923 108.591 92.854 106.82 95.9608V79.1401H104.5V96.0353C102.734 92.9649 100.18 88.5257 100.18 88.5257L98.1689 89.6821L105.653 102.692L113.151 89.5414L111.136 88.3923Z" fill="#FAB639"/>
</svg>
